<svg width="1280" height="720" viewBox="0 0 1280 720" fill="none" xmlns="http://www.w3.org/2000/svg">
<rect width="1280" height="720" fill="#F2F2F2"/>
<path d="M1050 51.5L1082.5 53.5L1064 77.5L1050 51.5Z" fill="#A2267E"/>
<path d="M1116 201.5C1116.59 199.937 1117.91 177.153 1119.35 148.931C1119.85 138.998 1120.37 128.392 1120.88 117.801C1121.88 96.877 1122.82 76.0089 1123.5 60.5L1247 150L1116 201.5Z" fill="#D61D60"/>
<path d="M1119.35 148.931C1119.85 138.998 1120.37 128.392 1120.88 117.801L1041 96.5L1062 201.5L1119.35 148.931Z" fill="#96C4DC"/>
<path d="M182.5 611.5C183.3 609.1 184.5 570.167 185 551L231 582.5L182.5 611.5Z" fill="#CB93B3"/>
<path fill-rule="evenodd" clip-rule="evenodd" d="M205 675.5L46 690L104.722 575.475L115 597.5L143.59 564.023L205 675.5Z" fill="#7EBB44"/>
<path d="M173.5 529C142.667 525 80.1 516.6 76.5 515L104.722 575.475L115 597.5L143.59 564.023L173.5 529Z" fill="#212C59"/>
</svg>
