<?xml version="1.0" standalone="no"?>
<!DOCTYPE svg PUBLIC "-//W3C//DTD SVG 20010904//EN"
 "http://www.w3.org/TR/2001/REC-SVG-20010904/DTD/svg10.dtd">
<svg version="1.0" xmlns="http://www.w3.org/2000/svg"
 width="700.000000pt" height="700.000000pt" viewBox="0 0 700.000000 700.000000"
 preserveAspectRatio="xMidYMid meet">
<metadata>
Created by potrace 1.14, written by Peter Selinger 2001-2017
</metadata>
<g transform="translate(0.000000,700.000000) scale(0.100000,-0.100000)"
fill="#000000" stroke="none">
<path d="M3463 6953 c-31 -77 -88 -190 -134 -268 -41 -69 -172 -261 -188 -275
-4 -3 -31 -34 -61 -70 -30 -36 -61 -72 -70 -81 -14 -14 -120 -133 -163 -182
-9 -11 -61 -68 -115 -126 -54 -58 -118 -128 -143 -156 -24 -27 -46 -52 -49
-55 -3 -3 -46 -50 -95 -105 -49 -55 -91 -102 -95 -105 -3 -3 -39 -43 -80 -90
-41 -46 -82 -91 -90 -100 -8 -9 -49 -54 -90 -100 -41 -47 -97 -110 -125 -140
-27 -31 -84 -93 -125 -139 -41 -47 -80 -89 -85 -95 -6 -6 -66 -74 -135 -151
-68 -77 -138 -155 -154 -173 -17 -18 -45 -50 -64 -70 -137 -152 -367 -538
-467 -787 -81 -200 -151 -465 -170 -645 -4 -30 -8 -73 -11 -95 -12 -102 -6
-373 11 -495 6 -44 16 -114 21 -145 15 -92 83 -338 113 -410 5 -11 26 -63 46
-115 104 -260 268 -531 468 -770 156 -187 275 -302 478 -465 29 -22 161 -111
234 -155 69 -42 296 -160 309 -160 3 0 25 -9 49 -19 155 -71 449 -149 663
-176 27 -4 60 -8 73 -10 35 -6 240 -19 286 -18 49 0 238 13 268 18 12 2 47 6
77 9 105 12 239 39 357 72 49 14 95 27 103 29 69 17 223 81 365 150 345 169
616 382 883 695 266 311 445 622 566 982 28 86 65 218 72 263 3 17 9 46 14 65
5 19 12 58 15 85 4 28 8 57 10 65 9 32 18 201 17 326 0 466 -138 917 -423
1380 -114 185 -190 286 -340 449 -26 27 -106 118 -179 200 -73 83 -151 170
-174 195 -23 25 -75 83 -116 130 -41 47 -79 90 -85 96 -18 20 -150 167 -165
184 -16 18 -136 152 -178 198 -76 84 -104 115 -172 192 -71 81 -108 121 -230
250 -79 84 -109 117 -192 215 -42 50 -89 104 -103 120 -138 159 -272 376 -344
558 -20 48 -27 57 -48 57 -18 0 -28 -9 -40 -37z m71 -1204 c17 -12 48 -43 70
-68 21 -25 57 -66 80 -91 22 -25 75 -84 116 -130 41 -47 79 -90 85 -96 5 -6
38 -42 71 -80 34 -38 73 -81 85 -95 57 -61 185 -203 199 -219 41 -47 146 -165
156 -174 5 -6 84 -94 174 -196 90 -102 166 -187 169 -190 14 -11 271 -310 328
-380 33 -41 86 -113 117 -160 31 -47 60 -89 64 -95 25 -35 126 -246 156 -328
119 -320 144 -690 69 -1032 -38 -178 -110 -388 -140 -411 -38 -29 -94 -12
-111 33 -9 23 -21 81 -22 103 -1 16 -62 207 -85 266 -35 89 -111 241 -164 328
-38 61 -166 243 -181 256 -3 3 -19 23 -35 46 -17 22 -46 61 -67 85 -20 24 -83
100 -140 169 -57 69 -113 136 -125 150 -33 39 -94 111 -143 170 -25 30 -72 86
-105 125 -61 71 -112 132 -219 259 -33 39 -65 76 -70 82 -6 6 -31 35 -56 65
-41 49 -322 379 -373 439 -12 14 -44 52 -72 85 -27 33 -52 62 -55 65 -3 3 -30
34 -60 70 -30 36 -57 67 -60 70 -21 19 -219 259 -228 276 -18 33 -5 71 38 114
4 4 169 187 195 216 6 6 40 44 76 85 37 41 90 101 118 134 71 81 94 90 145 54z
m-963 -1067 c14 -9 57 -53 95 -97 38 -44 71 -82 74 -85 5 -5 53 -61 229 -264
57 -66 108 -130 113 -142 12 -25 5 -66 -15 -86 -16 -17 -335 -401 -417 -503
-36 -44 -67 -82 -70 -85 -5 -4 -40 -48 -97 -120 -7 -8 -47 -58 -89 -110 -42
-52 -89 -113 -103 -135 -14 -22 -49 -69 -77 -105 -180 -227 -322 -507 -390
-770 -9 -36 -18 -74 -20 -85 -3 -19 -5 -31 -19 -96 -6 -24 -24 -39 -67 -53
-23 -7 -66 29 -83 71 -36 86 -89 266 -110 373 -37 184 -51 475 -31 625 23 169
49 277 102 430 81 232 248 505 436 716 13 14 121 139 242 277 120 138 226 253
235 255 29 8 36 7 62 -11z m989 -1209 c98 -123 513 -634 625 -769 255 -307
301 -381 360 -574 69 -228 40 -503 -79 -755 -61 -129 -115 -206 -215 -305
-200 -199 -468 -304 -771 -303 -80 0 -164 8 -192 18 -7 2 -24 6 -38 9 -126 21
-330 121 -440 215 -159 136 -270 296 -333 481 -111 328 -66 671 125 953 22 32
117 151 212 265 154 185 401 485 496 602 55 69 92 114 130 160 19 24 39 49 43
56 13 23 21 17 77 -53z"/>
</g>
</svg>
